<?xml version="1.0" encoding="utf-8" standalone="no"?>
<!DOCTYPE svg PUBLIC "-//W3C//DTD SVG 1.1//EN"
  "http://www.w3.org/Graphics/SVG/1.1/DTD/svg11.dtd">
<svg xmlns:xlink="http://www.w3.org/1999/xlink" width="684pt" height="520.219734pt" viewBox="0 0 684 520.219734" xmlns="http://www.w3.org/2000/svg" version="1.1">
 <metadata>
  <rdf:RDF xmlns:dc="http://purl.org/dc/elements/1.1/" xmlns:cc="http://creativecommons.org/ns#" xmlns:rdf="http://www.w3.org/1999/02/22-rdf-syntax-ns#">
   <cc:Work>
    <dc:type rdf:resource="http://purl.org/dc/dcmitype/StillImage"/>
    <dc:date>2026-07-22T06:06:14.177450</dc:date>
    <dc:format>image/svg+xml</dc:format>
    <dc:creator>
     <cc:Agent>
      <dc:title>Matplotlib v3.10.9, https://matplotlib.org/</dc:title>
     </cc:Agent>
    </dc:creator>
   </cc:Work>
  </rdf:RDF>
 </metadata>
 <defs>
  <style type="text/css">*{stroke-linejoin: round; stroke-linecap: butt}</style>
 </defs>
 <g id="figure_1">
  <g id="patch_1">
   <path d="M 0 520.219734 
L 684 520.219734 
L 684 0 
L 0 0 
z
" style="fill: #ffffff"/>
  </g>
  <g id="axes_1">
   <g id="patch_2">
    <path d="M 192.6792 73.519134 
L 491.3208 73.519134 
Q 498.0168 73.519134 498.0168 69.361134 
L 498.0168 41.918334 
Q 498.0168 37.760334 491.3208 37.760334 
L 192.6792 37.760334 
Q 185.9832 37.760334 185.9832 41.918334 
L 185.9832 69.361134 
Q 185.9832 73.519134 192.6792 73.519134 
z
" clip-path="url(#pb4a9f7b1e0)" style="fill: #e0e7ff; stroke: #3730a3; stroke-width: 1.6; stroke-linejoin: miter"/>
   </g>
   <g id="patch_3">
    <path d="M 192.6792 123.415134 
L 491.3208 123.415134 
Q 498.0168 123.415134 498.0168 119.257134 
L 498.0168 91.814334 
Q 498.0168 87.656334 491.3208 87.656334 
L 192.6792 87.656334 
Q 185.9832 87.656334 185.9832 91.814334 
L 185.9832 119.257134 
Q 185.9832 123.415134 192.6792 123.415134 
z
" clip-path="url(#pb4a9f7b1e0)" style="fill: #e0e7ff; stroke: #3730a3; stroke-width: 1.6; stroke-linejoin: miter"/>
   </g>
   <g id="patch_4">
    <path d="M 192.6792 173.311134 
L 491.3208 173.311134 
Q 498.0168 173.311134 498.0168 169.153134 
L 498.0168 141.710334 
Q 498.0168 137.552334 491.3208 137.552334 
L 192.6792 137.552334 
Q 185.9832 137.552334 185.9832 141.710334 
L 185.9832 169.153134 
Q 185.9832 173.311134 192.6792 173.311134 
z
" clip-path="url(#pb4a9f7b1e0)" style="fill: #e0e7ff; stroke: #3730a3; stroke-width: 1.6; stroke-linejoin: miter"/>
   </g>
   <g id="patch_5">
    <path d="M 139.1112 223.207134 
L 544.8888 223.207134 
Q 551.5848 223.207134 551.5848 219.049134 
L 551.5848 191.606334 
Q 551.5848 187.448334 544.8888 187.448334 
L 139.1112 187.448334 
Q 132.4152 187.448334 132.4152 191.606334 
L 132.4152 219.049134 
Q 132.4152 223.207134 139.1112 223.207134 
z
" clip-path="url(#pb4a9f7b1e0)" style="fill: #dbeafe; stroke: #3730a3; stroke-width: 1.6; stroke-linejoin: miter"/>
   </g>
   <g id="patch_6">
    <path d="M 192.6792 273.103134 
L 491.3208 273.103134 
Q 498.0168 273.103134 498.0168 268.945134 
L 498.0168 241.502334 
Q 498.0168 237.344334 491.3208 237.344334 
L 192.6792 237.344334 
Q 185.9832 237.344334 185.9832 241.502334 
L 185.9832 268.945134 
Q 185.9832 273.103134 192.6792 273.103134 
z
" clip-path="url(#pb4a9f7b1e0)" style="fill: #e0e7ff; stroke: #3730a3; stroke-width: 1.6; stroke-linejoin: miter"/>
   </g>
   <g id="patch_7">
    <path d="M 192.6792 322.999134 
L 491.3208 322.999134 
Q 498.0168 322.999134 498.0168 318.841134 
L 498.0168 291.398334 
Q 498.0168 287.240334 491.3208 287.240334 
L 192.6792 287.240334 
Q 185.9832 287.240334 185.9832 291.398334 
L 185.9832 318.841134 
Q 185.9832 322.999134 192.6792 322.999134 
z
" clip-path="url(#pb4a9f7b1e0)" style="fill: #e0e7ff; stroke: #3730a3; stroke-width: 1.6; stroke-linejoin: miter"/>
   </g>
   <g id="patch_8">
    <path d="M 139.1112 372.895134 
L 544.8888 372.895134 
Q 551.5848 372.895134 551.5848 368.737134 
L 551.5848 341.294334 
Q 551.5848 337.136334 544.8888 337.136334 
L 139.1112 337.136334 
Q 132.4152 337.136334 132.4152 341.294334 
L 132.4152 368.737134 
Q 132.4152 372.895134 139.1112 372.895134 
z
" clip-path="url(#pb4a9f7b1e0)" style="fill: #dcfce7; stroke: #3730a3; stroke-width: 1.6; stroke-linejoin: miter"/>
   </g>
   <g id="patch_9">
    <path d="M 139.1112 422.791134 
L 544.8888 422.791134 
Q 551.5848 422.791134 551.5848 418.633134 
L 551.5848 391.190334 
Q 551.5848 387.032334 544.8888 387.032334 
L 139.1112 387.032334 
Q 132.4152 387.032334 132.4152 391.190334 
L 132.4152 418.633134 
Q 132.4152 422.791134 139.1112 422.791134 
z
" clip-path="url(#pb4a9f7b1e0)" style="fill: #f1f5f9; stroke: #3730a3; stroke-width: 1.6; stroke-linejoin: miter"/>
   </g>
   <g id="patch_10">
    <path d="M 342 74.273584 
Q 342 80.590337 342 84.894629 
" clip-path="url(#pb4a9f7b1e0)" style="fill: none; stroke: #2563eb; stroke-width: 1.8; stroke-linecap: round"/>
    <path d="M 345 78.894629 
L 342 84.894629 
L 339 78.894629 
z
" clip-path="url(#pb4a9f7b1e0)" style="fill: #2563eb; stroke: #2563eb; stroke-width: 1.8; stroke-linecap: round"/>
   </g>
   <g id="patch_11">
    <path d="M 342 124.169584 
Q 342 130.486337 342 134.790629 
" clip-path="url(#pb4a9f7b1e0)" style="fill: none; stroke: #2563eb; stroke-width: 1.8; stroke-linecap: round"/>
    <path d="M 345 128.790629 
L 342 134.790629 
L 339 128.790629 
z
" clip-path="url(#pb4a9f7b1e0)" style="fill: #2563eb; stroke: #2563eb; stroke-width: 1.8; stroke-linecap: round"/>
   </g>
   <g id="patch_12">
    <path d="M 342 174.065584 
Q 342 180.382337 342 184.686629 
" clip-path="url(#pb4a9f7b1e0)" style="fill: none; stroke: #2563eb; stroke-width: 1.8; stroke-linecap: round"/>
    <path d="M 345 178.686629 
L 342 184.686629 
L 339 178.686629 
z
" clip-path="url(#pb4a9f7b1e0)" style="fill: #2563eb; stroke: #2563eb; stroke-width: 1.8; stroke-linecap: round"/>
   </g>
   <g id="patch_13">
    <path d="M 342 223.961584 
Q 342 230.278337 342 234.582629 
" clip-path="url(#pb4a9f7b1e0)" style="fill: none; stroke: #2563eb; stroke-width: 1.8; stroke-linecap: round"/>
    <path d="M 345 228.582629 
L 342 234.582629 
L 339 228.582629 
z
" clip-path="url(#pb4a9f7b1e0)" style="fill: #2563eb; stroke: #2563eb; stroke-width: 1.8; stroke-linecap: round"/>
   </g>
   <g id="patch_14">
    <path d="M 342 273.857584 
Q 342 280.174337 342 284.478629 
" clip-path="url(#pb4a9f7b1e0)" style="fill: none; stroke: #2563eb; stroke-width: 1.8; stroke-linecap: round"/>
    <path d="M 345 278.478629 
L 342 284.478629 
L 339 278.478629 
z
" clip-path="url(#pb4a9f7b1e0)" style="fill: #2563eb; stroke: #2563eb; stroke-width: 1.8; stroke-linecap: round"/>
   </g>
   <g id="patch_15">
    <path d="M 342 323.753584 
Q 342 330.070337 342 334.374629 
" clip-path="url(#pb4a9f7b1e0)" style="fill: none; stroke: #2563eb; stroke-width: 1.8; stroke-linecap: round"/>
    <path d="M 345 328.374629 
L 342 334.374629 
L 339 328.374629 
z
" clip-path="url(#pb4a9f7b1e0)" style="fill: #2563eb; stroke: #2563eb; stroke-width: 1.8; stroke-linecap: round"/>
   </g>
   <g id="patch_16">
    <path d="M 342 373.649584 
Q 342 379.966337 342 384.270629 
" clip-path="url(#pb4a9f7b1e0)" style="fill: none; stroke: #2563eb; stroke-width: 1.8; stroke-linecap: round"/>
    <path d="M 345 378.270629 
L 342 384.270629 
L 339 378.270629 
z
" clip-path="url(#pb4a9f7b1e0)" style="fill: #2563eb; stroke: #2563eb; stroke-width: 1.8; stroke-linecap: round"/>
   </g>
   <g id="line2d_1">
    <path d="M 20.592 438.175734 
L 663.408 438.175734 
" clip-path="url(#pb4a9f7b1e0)" style="fill: none; stroke: #cbd5e1; stroke-linecap: square"/>
   </g>
   <g id="text_1">
    <text style="font-size: 9.6px; font-family: 'DejaVu Sans', 'Bitstream Vera Sans', 'Computer Modern Sans Serif', 'Lucida Grande', 'Verdana', 'Geneva', 'Lucid', 'Arial', 'Helvetica', 'Avant Garde', sans-serif; text-anchor: middle; fill: #0f172a" x="342" y="58.288734" transform="rotate(-0 342 58.288734)">Per-chart 17-dim features</text>
   </g>
   <g id="text_2">
    <text style="font-size: 9.6px; font-family: 'DejaVu Sans', 'Bitstream Vera Sans', 'Computer Modern Sans Serif', 'Lucida Grande', 'Verdana', 'Geneva', 'Lucid', 'Arial', 'Helvetica', 'Avant Garde', sans-serif; text-anchor: middle; fill: #0f172a" x="342" y="108.184734" transform="rotate(-0 342 108.184734)">shared MLP  17 -&gt; 128 -&gt; 128  (ReLU)</text>
   </g>
   <g id="text_3">
    <text style="font-size: 9.6px; font-family: 'DejaVu Sans', 'Bitstream Vera Sans', 'Computer Modern Sans Serif', 'Lucida Grande', 'Verdana', 'Geneva', 'Lucid', 'Arial', 'Helvetica', 'Avant Garde', sans-serif; text-anchor: middle; fill: #0f172a" x="342" y="158.080734" transform="rotate(-0 342 158.080734)">per-chart embedding  local (128)</text>
   </g>
   <g id="text_4">
    <text style="font-size: 9.6px; font-family: 'DejaVu Sans', 'Bitstream Vera Sans', 'Computer Modern Sans Serif', 'Lucida Grande', 'Verdana', 'Geneva', 'Lucid', 'Arial', 'Helvetica', 'Avant Garde', sans-serif; text-anchor: middle; fill: #0f172a" x="342" y="207.976734" transform="rotate(-0 342 207.976734)">object-level pooling  mean (128) + max (128)  -&gt;  context (256)</text>
   </g>
   <g id="text_5">
    <text style="font-size: 9.6px; font-family: 'DejaVu Sans', 'Bitstream Vera Sans', 'Computer Modern Sans Serif', 'Lucida Grande', 'Verdana', 'Geneva', 'Lucid', 'Arial', 'Helvetica', 'Avant Garde', sans-serif; text-anchor: middle; fill: #0f172a" x="342" y="257.872734" transform="rotate(-0 342 257.872734)">concat  local 128 + mean 128 + max 128 = 384</text>
   </g>
   <g id="text_6">
    <text style="font-size: 9.6px; font-family: 'DejaVu Sans', 'Bitstream Vera Sans', 'Computer Modern Sans Serif', 'Lucida Grande', 'Verdana', 'Geneva', 'Lucid', 'Arial', 'Helvetica', 'Avant Garde', sans-serif; text-anchor: middle; fill: #0f172a" x="342" y="307.768734" transform="rotate(-0 342 307.768734)">head MLP  384 -&gt; 128 -&gt; 1  (ReLU)</text>
   </g>
   <g id="text_7">
    <text style="font-size: 9.6px; font-family: 'DejaVu Sans', 'Bitstream Vera Sans', 'Computer Modern Sans Serif', 'Lucida Grande', 'Verdana', 'Geneva', 'Lucid', 'Arial', 'Helvetica', 'Avant Garde', sans-serif; text-anchor: middle; fill: #0f172a" x="342" y="357.531234" transform="rotate(-0 342 357.531234)">object-wise mean centering  -&gt;  chart_log_density_ratio</text>
   </g>
   <g id="text_8">
    <text style="font-size: 9.6px; font-family: 'DejaVu Sans', 'Bitstream Vera Sans', 'Computer Modern Sans Serif', 'Lucida Grande', 'Verdana', 'Geneva', 'Lucid', 'Arial', 'Helvetica', 'Avant Garde', sans-serif; text-anchor: middle; fill: #0f172a" x="342" y="407.560734" transform="rotate(-0 342 407.560734)">chart scaling + deterministic packing  -&gt;  final UV atlas</text>
   </g>
   <g id="text_9">
    <text style="font-weight: 700; font-size: 14.5px; font-family: 'DejaVu Sans', 'Bitstream Vera Sans', 'Computer Modern Sans Serif', 'Lucida Grande', 'Verdana', 'Geneva', 'Lucid', 'Arial', 'Helvetica', 'Avant Garde', sans-serif; text-anchor: middle; fill: #0f172a" x="342" y="18.217734" transform="rotate(-0 342 18.217734)">Student-v0 Architecture (handcrafted_signal_baseline)</text>
   </g>
   <g id="text_10">
    <text style="font-size: 8.8px; font-family: 'DejaVu Sans', 'Bitstream Vera Sans', 'Computer Modern Sans Serif', 'Lucida Grande', 'Verdana', 'Geneva', 'Lucid', 'Arial', 'Helvetica', 'Avant Garde', sans-serif; text-anchor: start; fill: #64748b" x="27.288" y="450.649734" transform="rotate(-0 27.288 450.649734)">- ~68,225 params  |  O(C), no attention, no chart graph</text>
   </g>
   <g id="text_11">
    <text style="font-size: 8.8px; font-family: 'DejaVu Sans', 'Bitstream Vera Sans', 'Computer Modern Sans Serif', 'Lucida Grande', 'Verdana', 'Geneva', 'Lucid', 'Arial', 'Helvetica', 'Avant Garde', sans-serif; text-anchor: start; fill: #64748b" x="27.288" y="465.618534" transform="rotate(-0 27.288 465.618534)">- 1 scalar per chart  -&gt;  no seam, no UV-vertex offset</text>
   </g>
   <g id="text_12">
    <text style="font-size: 8.8px; font-family: 'DejaVu Sans', 'Bitstream Vera Sans', 'Computer Modern Sans Serif', 'Lucida Grande', 'Verdana', 'Geneva', 'Lucid', 'Arial', 'Helvetica', 'Avant Garde', sans-serif; text-anchor: start; fill: #64748b" x="27.288" y="480.587334" transform="rotate(-0 27.288 480.587334)">- Deep-Sets / PointNet-style shared encoder + symmetric pooling</text>
   </g>
   <g id="text_13">
    <text style="font-size: 8.8px; font-family: 'DejaVu Sans', 'Bitstream Vera Sans', 'Computer Modern Sans Serif', 'Lucida Grande', 'Verdana', 'Geneva', 'Lucid', 'Arial', 'Helvetica', 'Avant Garde', sans-serif; text-anchor: start; fill: #64748b" x="27.288" y="495.556134" transform="rotate(-0 27.288 495.556134)">- custom handcrafted-signal MVP baseline (not ArtUV / PartUV / PointNet)</text>
   </g>
  </g>
 </g>
 <defs>
  <clipPath id="pb4a9f7b1e0">
   <rect x="7.2" y="14.059734" width="669.6" height="498.96"/>
  </clipPath>
 </defs>
</svg>
